<svg height="368pt" viewBox="0 0 368 368" width="368pt" xmlns="http://www.w3.org/2000/svg"><path d="m328 64h-56v-24c0-22.054688-17.945312-40-40-40h-96.007812c-22.054688 0-39.992188 17.945312-39.992188 40v24h-56c-22.054688 0-40 17.945312-40 40v224c0 22.054688 17.945312 40 40 40h287.992188c22.0625 0 40.007812-17.945312 40.007812-40v-224c0-22.054688-17.945312-40-40-40zm-216-24c0-13.230469 10.769531-24 23.992188-24h96.007812c13.230469 0 24 10.769531 24 24v24h-144zm-96 64c0-13.230469 10.769531-24 24-24h288c13.230469 0 24 10.769531 24 24v64c0 13.230469-10.777344 24-24.007812 24h-87.992188v-24c0-4.425781-3.574219-8-8-8h-96c-4.425781 0-8 3.574219-8 8v24h-88c-13.230469 0-24-10.769531-24-24zm128 72h80v23.960938c0 .015624-.007812.023437-.007812.039062s.007812.023438.007812.039062v31.960938c0 13.230469-10.769531 24-24 24h-32c-13.230469 0-24-10.769531-24-24zm183.992188 176h-287.992188c-13.230469 0-24-10.769531-24-24v-128.207031c6.703125 5.078125 14.960938 8.207031 24 8.207031h88v24c0 22.054688 17.945312 40 40 40h32c22.054688 0 40-17.945312 40-40v-24h87.992188c9.039062 0 17.304687-3.128906 24.007812-8.207031v128.207031c0 13.230469-10.777344 24-24.007812 24zm0 0"/></svg>